<?xml version="1.0" encoding="UTF-8" ?>
<!DOCTYPE svg PUBLIC "-//W3C//DTD SVG 1.1//EN" "http://www.w3.org/Graphics/SVG/1.1/DTD/svg11.dtd">
<svg width="256pt" height="256pt" viewBox="0 0 256 256" version="1.1" xmlns="http://www.w3.org/2000/svg">
<path fill="#ffffff" d=" M 0.00 0.00 L 126.01 0.00 C 111.98 0.72 98.42 7.64 89.76 18.71 C 80.56 30.10 76.98 45.71 80.21 59.99 C 83.77 76.69 96.67 90.84 112.85 96.19 C 113.61 93.62 114.29 91.02 114.87 88.41 C 105.17 84.96 96.77 77.93 91.97 68.80 C 86.12 57.99 85.52 44.49 90.36 33.19 C 94.38 23.65 102.14 15.77 111.60 11.58 C 122.79 6.55 136.25 6.89 147.15 12.52 C 155.85 16.91 162.89 24.51 166.56 33.54 C 171.56 45.44 170.50 59.70 163.75 70.71 C 158.79 79.04 150.75 85.31 141.65 88.53 C 142.15 91.17 142.70 93.81 143.37 96.42 C 156.54 92.05 167.82 82.15 173.44 69.41 C 180.07 54.88 178.90 37.12 170.42 23.57 C 162.19 9.91 147.02 0.91 131.11 0.00 L 256.00 0.00 L 256.00 126.29 C 255.34 112.89 249.13 99.85 238.90 91.13 C 227.18 80.77 210.33 76.68 195.15 80.43 C 178.84 84.20 165.11 96.91 159.82 112.77 C 162.39 113.51 164.97 114.21 167.58 114.80 C 171.34 104.23 179.40 95.24 189.72 90.72 C 201.37 85.42 215.51 86.00 226.67 92.27 C 235.63 97.19 242.64 105.59 245.82 115.32 C 249.83 127.14 248.07 140.78 241.13 151.17 C 234.47 161.38 223.07 168.33 210.92 169.48 C 198.96 170.81 186.53 166.53 177.93 158.11 C 173.15 153.58 169.72 147.81 167.45 141.66 C 164.82 142.15 162.20 142.70 159.60 143.35 C 164.07 157.35 175.02 169.10 188.76 174.37 C 203.76 180.33 221.69 178.23 234.84 168.84 C 247.23 160.34 255.12 145.96 256.00 130.99 L 256.00 256.00 L 129.73 256.00 C 143.62 255.33 157.07 248.64 165.80 237.80 C 175.81 225.77 179.38 208.79 175.19 193.72 C 171.06 178.01 158.58 164.97 143.21 159.82 C 142.46 162.37 141.79 164.95 141.15 167.54 C 150.80 171.06 159.19 178.03 164.01 187.14 C 170.59 199.26 170.48 214.68 163.72 226.70 C 157.69 237.72 146.35 245.68 133.90 247.46 C 122.48 249.30 110.34 246.04 101.44 238.65 C 92.82 231.70 87.26 221.11 86.43 210.07 C 85.40 198.61 89.50 186.84 97.38 178.45 C 102.00 173.40 107.99 169.80 114.37 167.43 C 113.83 164.81 113.27 162.20 112.62 159.61 C 106.61 161.71 100.59 164.47 96.19 169.21 C 92.80 172.80 88.91 175.97 86.07 180.03 C 82.61 185.47 80.05 191.58 79.08 197.97 C 79.20 204.02 77.55 210.09 79.15 216.07 C 83.01 237.81 102.98 255.02 124.99 256.00 L 0.00 256.00 L 0.00 129.90 C 0.70 144.45 8.14 158.49 19.89 167.12 C 31.61 176.01 47.42 179.08 61.64 175.35 C 77.62 171.37 90.91 158.78 96.19 143.24 C 93.62 142.49 91.02 141.83 88.42 141.18 C 84.69 151.47 76.97 160.32 67.00 164.93 C 56.14 170.11 42.98 170.19 32.07 165.12 C 20.65 159.96 11.91 149.30 9.13 137.07 C 7.08 128.23 7.92 118.70 11.74 110.44 C 16.09 100.84 24.27 93.05 34.08 89.18 C 45.88 84.44 59.87 85.60 70.72 92.25 C 79.05 97.19 85.31 105.24 88.52 114.34 C 91.15 113.84 93.77 113.28 96.37 112.63 C 92.06 99.14 81.74 87.71 68.68 82.21 C 54.49 76.01 37.41 77.17 24.16 85.18 C 10.19 93.35 0.91 108.72 0.00 124.87 L 0.00 0.00 Z" />
<path fill="#010101" d=" M 126.01 0.00 L 131.11 0.00 C 147.02 0.91 162.19 9.91 170.42 23.57 C 178.90 37.12 180.07 54.88 173.44 69.41 C 167.82 82.15 156.54 92.05 143.37 96.42 C 142.70 93.81 142.15 91.17 141.65 88.53 C 150.75 85.31 158.79 79.04 163.75 70.71 C 170.50 59.70 171.56 45.44 166.56 33.54 C 162.89 24.51 155.85 16.91 147.15 12.52 C 136.25 6.89 122.79 6.55 111.60 11.58 C 102.14 15.77 94.38 23.65 90.36 33.19 C 85.52 44.49 86.12 57.99 91.97 68.80 C 96.77 77.93 105.17 84.96 114.87 88.41 C 114.29 91.02 113.61 93.62 112.85 96.19 C 96.67 90.84 83.77 76.69 80.21 59.99 C 76.98 45.71 80.56 30.10 89.76 18.71 C 98.42 7.64 111.98 0.72 126.01 0.00 Z" />
<path fill="#010101" d=" M 135.55 38.25 C 140.00 31.69 144.99 24.95 152.12 21.13 C 153.68 19.93 156.46 20.66 155.69 23.01 C 153.66 31.68 146.44 37.78 139.98 43.36 C 138.75 41.46 137.25 39.75 135.55 38.25 Z" />
<path fill="#010101" d=" M 119.40 49.95 C 118.87 44.70 123.76 39.85 128.99 40.34 C 133.83 40.54 137.88 45.16 137.38 50.00 C 137.30 52.86 135.43 55.15 133.47 57.05 C 134.07 70.17 135.15 83.46 139.12 96.06 C 141.97 105.66 149.50 113.86 159.06 117.01 C 171.91 121.45 185.61 122.53 199.10 123.17 C 202.20 119.18 208.48 118.01 212.41 121.48 C 217.21 125.11 216.48 133.34 211.20 136.17 C 207.14 138.72 201.84 137.09 198.97 133.52 C 185.85 134.16 172.54 135.16 159.95 139.18 C 150.38 141.98 142.18 149.49 139.02 159.01 C 134.53 171.85 133.49 185.56 132.80 199.05 C 134.64 200.96 136.54 203.17 136.57 205.98 C 137.07 210.87 132.91 215.53 128.02 215.66 C 122.83 216.10 118.08 211.21 118.59 206.04 C 118.64 203.17 120.48 200.86 122.45 198.97 C 121.80 185.18 120.72 171.14 116.13 158.01 C 115.34 155.03 112.80 152.63 112.87 149.43 C 111.32 147.42 108.77 146.71 107.04 144.90 C 102.16 140.34 95.56 138.35 89.23 136.76 C 78.60 134.31 67.69 133.31 56.81 132.87 C 54.80 135.02 52.12 136.81 49.05 136.59 C 44.11 136.60 39.90 131.91 40.34 127.03 C 40.52 122.19 45.16 118.11 50.00 118.61 C 52.85 118.69 55.13 120.55 57.02 122.50 C 70.12 121.93 83.40 120.83 95.97 116.88 C 105.81 113.99 114.13 106.14 117.19 96.30 C 121.42 83.63 122.50 70.16 123.15 56.89 C 121.25 55.02 119.46 52.76 119.40 49.95 Z" />
<path fill="#010101" d=" M 101.04 75.97 C 102.87 67.20 110.18 61.09 116.59 55.45 C 117.93 57.31 119.46 59.02 121.25 60.45 C 116.90 66.80 112.09 73.23 105.34 77.18 C 103.89 78.29 100.55 78.73 101.04 75.97 Z" />
<path fill="#010101" d=" M 24.16 85.18 C 37.41 77.17 54.49 76.01 68.68 82.21 C 81.74 87.71 92.06 99.14 96.37 112.63 C 93.77 113.28 91.15 113.84 88.52 114.34 C 85.31 105.24 79.05 97.19 70.72 92.25 C 59.87 85.60 45.88 84.44 34.08 89.18 C 24.27 93.05 16.09 100.84 11.74 110.44 C 7.92 118.70 7.08 128.23 9.13 137.07 C 11.91 149.30 20.65 159.96 32.07 165.12 C 42.98 170.19 56.14 170.11 67.00 164.93 C 76.97 160.32 84.69 151.47 88.42 141.18 C 91.02 141.83 93.62 142.49 96.19 143.24 C 90.91 158.78 77.62 171.37 61.64 175.35 C 47.42 179.08 31.61 176.01 19.89 167.12 C 8.14 158.49 0.70 144.45 0.00 129.90 L 0.00 124.87 C 0.91 108.72 10.19 93.35 24.16 85.18 Z" />
<path fill="#010101" d=" M 195.15 80.43 C 210.33 76.68 227.18 80.77 238.90 91.13 C 249.13 99.85 255.34 112.89 256.00 126.29 L 256.00 130.99 C 255.12 145.96 247.23 160.34 234.84 168.84 C 221.69 178.23 203.76 180.33 188.76 174.37 C 175.02 169.10 164.07 157.35 159.60 143.35 C 162.20 142.70 164.82 142.15 167.45 141.66 C 169.72 147.81 173.15 153.58 177.93 158.11 C 186.53 166.53 198.96 170.81 210.92 169.48 C 223.07 168.33 234.47 161.38 241.13 151.17 C 248.07 140.78 249.83 127.14 245.82 115.32 C 242.64 105.59 235.63 97.19 226.67 92.27 C 215.51 86.00 201.37 85.42 189.72 90.72 C 179.40 95.24 171.34 104.23 167.58 114.80 C 164.97 114.21 162.39 113.51 159.82 112.77 C 165.11 96.91 178.84 84.20 195.15 80.43 Z" />
<path fill="#010101" d=" M 20.47 100.65 C 22.01 100.15 23.66 100.17 25.15 100.83 C 32.71 103.64 38.13 109.92 43.26 115.86 C 41.39 117.17 39.78 118.79 38.38 120.60 C 32.17 116.31 25.89 111.66 21.81 105.18 C 20.88 103.84 20.62 102.23 20.47 100.65 Z" />
<path fill="#010101" d=" M 178.12 103.84 C 176.91 101.83 179.20 100.29 181.03 101.21 C 189.29 103.57 195.15 110.36 200.55 116.66 C 198.72 117.99 197.09 119.56 195.71 121.35 C 188.92 116.68 181.67 111.53 178.12 103.84 Z" />
<path fill="#010101" d=" M 60.52 134.84 C 66.90 139.12 73.32 143.97 77.24 150.72 C 78.21 152.11 78.73 155.27 76.11 154.95 C 67.22 153.20 61.04 145.78 55.37 139.28 C 57.32 138.08 59.08 136.61 60.52 134.84 Z" />
<path fill="#010101" d=" M 212.73 140.09 C 214.69 138.91 216.43 137.43 217.82 135.62 C 224.35 140.04 231.09 145.01 234.84 152.13 C 236.03 153.65 235.32 156.44 233.02 155.71 C 224.36 153.71 218.27 146.55 212.73 140.09 Z" />
<path fill="#010101" d=" M 96.19 169.21 C 100.59 164.47 106.61 161.71 112.62 159.61 C 113.27 162.20 113.83 164.81 114.37 167.43 C 107.99 169.80 102.00 173.40 97.38 178.45 C 89.50 186.84 85.40 198.61 86.43 210.07 C 87.26 221.11 92.82 231.70 101.44 238.65 C 110.34 246.04 122.48 249.30 133.90 247.46 C 146.35 245.68 157.69 237.72 163.72 226.70 C 170.48 214.68 170.59 199.26 164.01 187.14 C 159.19 178.03 150.80 171.06 141.15 167.54 C 141.79 164.95 142.46 162.37 143.21 159.82 C 158.58 164.97 171.06 178.01 175.19 193.72 C 179.38 208.79 175.81 225.77 165.80 237.80 C 157.07 248.64 143.62 255.33 129.73 256.00 L 124.99 256.00 C 102.98 255.02 83.01 237.81 79.15 216.07 C 77.55 210.09 79.20 204.02 79.08 197.97 C 80.05 191.58 82.61 185.47 86.07 180.03 C 88.91 175.97 92.80 172.80 96.19 169.21 Z" />
<path fill="#010101" d=" M 149.45 179.47 C 150.95 178.63 152.89 177.24 154.60 178.32 C 155.38 179.90 154.60 181.65 154.07 183.18 C 151.05 190.44 145.00 195.77 139.13 200.74 C 137.96 198.78 136.46 197.05 134.74 195.56 C 138.76 189.49 143.37 183.59 149.45 179.47 Z" />
<path fill="#010101" d=" M 100.28 232.96 C 102.34 224.37 109.43 218.30 115.84 212.76 C 117.11 214.67 118.62 216.39 120.45 217.78 C 115.91 224.30 110.99 231.10 103.82 234.88 C 102.23 236.03 99.49 235.31 100.28 232.96 Z" />
</svg>
